<?xml version="1.0" encoding="utf-8"?>
<!-- Generator: Adobe Illustrator 16.0.0, SVG Export Plug-In . SVG Version: 6.00 Build 0)  -->
<!DOCTYPE svg PUBLIC "-//W3C//DTD SVG 1.1//EN" "http://www.w3.org/Graphics/SVG/1.1/DTD/svg11.dtd">
<svg version="1.1" id="Layer_1" xmlns="http://www.w3.org/2000/svg" xmlns:xlink="http://www.w3.org/1999/xlink" x="0px" y="0px"
	 width="64px" height="64px" viewBox="0 0 64 64" enable-background="new 0 0 64 64" xml:space="preserve">
<g id="XMLID_5108_">
	<g id="XMLID_6100_">
		<g id="XMLID_6102_">
			
				<radialGradient id="XMLID_2_" cx="58.4102" cy="-2.5063" r="72.4883" gradientTransform="matrix(1 0 0 1.2599 0 10.9702)" gradientUnits="userSpaceOnUse">
				<stop  offset="0" style="stop-color:#E8318C"/>
				<stop  offset="1" style="stop-color:#BE1D6F"/>
			</radialGradient>
			<rect id="XMLID_6554_" x="-0.068" fill="url(#XMLID_2_)" width="64.135" height="64"/>
			<g id="XMLID_6104_">
				<path id="XMLID_6552_" fill="#FFFFFF" d="M7.53,16.939H7.499v9.723H6.471V15.515h1.165l6.292,9.738h0.03v-9.738h1.029v11.147
					h-1.195L7.53,16.939z"/>
				<path id="XMLID_6550_" fill="#FFFFFF" d="M17.422,26.662V15.515h7.244v0.899h-6.216v4.025h5.611v0.897h-5.611v4.428h6.368v0.898
					H17.422z"/>
				<path id="XMLID_6548_" fill="#FFFFFF" d="M35.21,25.176h0.029l2.375-9.662h1.059l-2.857,11.147h-1.135l-2.526-9.846h-0.03
					l-2.526,9.846h-1.135l-2.813-11.147h1.028l2.345,9.662h0.029l2.526-9.662h1.15L35.21,25.176z"/>
				<path id="XMLID_6545_" fill="#FFFFFF" d="M6.501,41.525V30.378H7.53v10.25h5.838v0.897H6.501z"/>
				<path id="XMLID_6229_" fill="#FFFFFF" d="M19.509,30.084c3.403,0,5.128,2.617,5.128,5.884c0,3.205-1.725,5.852-5.083,5.852
					c-3.357,0-5.066-2.646-5.066-5.852C14.472,32.716,16.258,30.084,19.509,30.084z M23.609,35.968c0-3.096-1.559-4.985-4.069-4.985
					c-2.798,0-4.022,2.398-4.022,4.985c0,2.631,1.21,4.954,4.053,4.954C22.398,40.922,23.609,38.569,23.609,35.968z"/>
				<path id="XMLID_6226_" fill="#FFFFFF" d="M31.278,30.084c3.403,0,5.127,2.617,5.127,5.884c0,3.205-1.725,5.852-5.083,5.852
					c-3.357,0-5.066-2.646-5.066-5.852C26.241,32.716,28.025,30.084,31.278,30.084z M35.376,35.968c0-3.096-1.557-4.985-4.068-4.985
					c-2.799,0-4.023,2.398-4.023,4.985c0,2.631,1.209,4.954,4.054,4.954C34.167,40.922,35.376,38.569,35.376,35.968z"/>
				<path id="XMLID_6224_" fill="#FFFFFF" d="M38.509,41.525V30.378h1.027v5.776l5.582-5.776h1.164l-4.295,4.444l5.051,6.703h-1.254
					l-4.539-6.053l-1.709,1.748v4.305H38.509z"/>
				<path id="XMLID_6177_" fill="#FFFFFF" d="M7.53,46.665H7.499v9.725H6.471V45.241h1.165l6.292,9.738h0.03v-9.738h1.029V56.39
					h-1.195L7.53,46.665z"/>
				<path id="XMLID_6168_" fill="#FFFFFF" d="M22.02,44.947c3.404,0,5.128,2.618,5.128,5.884c0,3.205-1.724,5.852-5.082,5.852
					s-5.067-2.646-5.067-5.852C16.984,47.579,18.768,44.947,22.02,44.947z M26.12,50.831c0-3.096-1.558-4.985-4.069-4.985
					c-2.799,0-4.023,2.399-4.023,4.985c0,2.632,1.21,4.954,4.054,4.954C24.91,55.785,26.12,53.432,26.12,50.831z"/>
				<path id="XMLID_6165_" fill="#FFFFFF" d="M37.737,54.902h0.029l2.373-9.661H41.2L38.341,56.39h-1.135l-2.525-9.848h-0.029
					l-2.526,9.848H30.99l-2.813-11.148h1.029l2.345,9.661h0.03l2.524-9.661h1.15L37.737,54.902z"/>
			</g>
		</g>
	</g>
	<g id="XMLID_5109_">
		<path id="XMLID_5110_" fill="#FFFFFF" d="M42.899,47.355c0-1.164,0.928-2.114,2.076-2.114c1.143,0,2.064,0.95,2.064,2.114
			c0,1.174-0.922,2.125-2.064,2.125C43.827,49.48,42.899,48.529,42.899,47.355z M46.712,47.355c0-1.03-0.73-1.835-1.736-1.835
			c-1.012,0-1.748,0.805-1.748,1.835c0,1.04,0.736,1.845,1.748,1.845C45.981,49.2,46.712,48.396,46.712,47.355z M46.009,48.541
			h-0.34l-0.66-1.09h-0.52v1.09h-0.285v-2.365h1.012c0.611,0,0.82,0.233,0.82,0.626c0,0.464-0.318,0.638-0.729,0.649L46.009,48.541z
			 M44.921,47.222c0.328,0,0.809,0.056,0.809-0.425c0-0.369-0.295-0.415-0.58-0.415h-0.66v0.84H44.921z"/>
	</g>
</g>
</svg>
